<svg width="20" height="16" viewBox="0 0 20 16" fill="none" xmlns="http://www.w3.org/2000/svg">
<path fill-rule="evenodd" clip-rule="evenodd" d="M0.25 8C0.25 7.58579 0.585786 7.25 1 7.25L19 7.25C19.4142 7.25 19.75 7.58578 19.75 8C19.75 8.41421 19.4142 8.75 19 8.75L1 8.75C0.585787 8.75 0.25 8.41421 0.25 8Z"/>
<path fill-rule="evenodd" clip-rule="evenodd" d="M11.4697 0.46967C11.7626 0.176777 12.2374 0.176777 12.5303 0.46967L19.5303 7.46967C19.8232 7.76256 19.8232 8.23744 19.5303 8.53033L12.5303 15.5303C12.2374 15.8232 11.7626 15.8232 11.4697 15.5303C11.1768 15.2374 11.1768 14.7626 11.4697 14.4697L17.9393 8L11.4697 1.53033C11.1768 1.23744 11.1768 0.762563 11.4697 0.46967Z"/>
</svg>
