<svg width="30" height="30" viewBox="0 0 30 30" fill="none" xmlns="http://www.w3.org/2000/svg">
<path fill-rule="evenodd" clip-rule="evenodd" d="M6.7 1.9C6.88885 1.64819 7.18524 1.5 7.5 1.5H22.5C22.8148 1.5 23.1111 1.64819 23.3 1.9L27.05 6.9C27.1798 7.0731 27.25 7.28363 27.25 7.5V25C27.25 25.9283 26.8813 26.8185 26.2249 27.4749C25.5685 28.1313 24.6783 28.5 23.75 28.5H6.25C5.32174 28.5 4.4315 28.1313 3.77513 27.4749C3.11875 26.8185 2.75 25.9283 2.75 25V7.5C2.75 7.28363 2.82018 7.0731 2.95 6.9L6.7 1.9ZM8 3.5L4.75 7.83333V25C4.75 25.3978 4.90804 25.7794 5.18934 26.0607C5.47064 26.342 5.85218 26.5 6.25 26.5H23.75C24.1478 26.5 24.5294 26.342 24.8107 26.0607C25.092 25.7794 25.25 25.3978 25.25 25V7.83333L22 3.5H8Z" fill="white"/>
<path fill-rule="evenodd" clip-rule="evenodd" d="M2.75 7.5C2.75 6.94772 3.19772 6.5 3.75 6.5H26.25C26.8023 6.5 27.25 6.94772 27.25 7.5C27.25 8.05228 26.8023 8.5 26.25 8.5H3.75C3.19772 8.5 2.75 8.05228 2.75 7.5Z" fill="white"/>
<path fill-rule="evenodd" clip-rule="evenodd" d="M10 11.5C10.5523 11.5 11 11.9477 11 12.5C11 13.5609 11.4214 14.5783 12.1716 15.3284C12.9217 16.0786 13.9391 16.5 15 16.5C16.0609 16.5 17.0783 16.0786 17.8284 15.3284C18.5786 14.5783 19 13.5609 19 12.5C19 11.9477 19.4477 11.5 20 11.5C20.5523 11.5 21 11.9477 21 12.5C21 14.0913 20.3679 15.6174 19.2427 16.7426C18.1174 17.8679 16.5913 18.5 15 18.5C13.4087 18.5 11.8826 17.8679 10.7574 16.7426C9.63215 15.6174 9.00001 14.0913 9.00001 12.5C9.00001 11.9477 9.44772 11.5 10 11.5Z" fill="white"/>
</svg>
