<svg width="78" height="78" viewbox="0 0 78 78" fill="none" xmlns="http://www.w3.org/2000/svg">
<path d="M40.1871 30.4144C38.0796 28.5706 37.9463 26.8623 39.6536 24.7473C39.8937 24.449 40.1604 24.1507 40.3738 23.8254C41.9478 21.5477 41.4142 19.27 39.0133 18.0227C38.8266 17.9142 38.6132 17.8057 38.3731 17.6973C38.3998 17.8328 38.3998 17.9142 38.4264 17.9684C39.2267 19.5411 39.0667 20.9782 37.9463 22.3069C37.7595 22.5238 37.5995 22.7679 37.4661 23.0119C35.4387 26.2929 37.4394 29.8179 40.1871 30.4144Z" fill="#C99E71"/>
<path d="M36.0256 27.6216C34.7985 26.2929 34.7718 25.127 35.8655 23.717C36.0256 23.5272 36.1856 23.3102 36.319 23.0933C37.3327 21.5749 37.066 19.975 35.6521 19.0531C35.5454 18.9718 35.412 18.8904 35.2786 18.8091C35.2786 18.8904 35.2786 18.9447 35.3053 18.9989C35.7588 20.0835 35.5988 21.0868 34.9052 21.9816C34.7985 22.1172 34.6918 22.2799 34.5851 22.4426C33.3046 24.666 34.3983 27.1606 36.0256 27.6216Z" fill="#C99E71"/>
<path d="M41.2008 28.8146C40.854 28.2181 40.694 27.5944 41.0408 26.9436C41.2008 26.6454 41.4142 26.3742 41.601 26.1302C42.0278 25.5608 42.1078 24.9642 41.841 24.3677C41.4142 24.9642 41.0141 25.5336 40.5872 26.1302C39.7869 27.2148 39.947 28.1096 41.2008 28.8146Z" fill="#C99E71"/>
<path d="M10.4961 45.762V44.3249L10.4161 44.2978C9.88257 44.0809 9.37571 43.9453 8.86886 43.9453C8.12192 43.9453 7.50836 44.2165 7.08153 44.7588C6.62803 45.3011 6.41462 46.0332 6.38794 46.9551C6.38794 47.877 6.60135 48.6363 7.02818 49.1515C7.455 49.6938 8.06856 49.9649 8.81551 49.9921H8.84218C9.37571 49.9921 9.88257 49.8565 10.3894 49.5853L10.4695 49.5582V48.6905L10.2827 48.799C9.77586 49.0701 9.29568 49.1786 8.86886 49.1786C8.362 49.1786 7.98853 48.9888 7.72177 48.6363C7.455 48.2838 7.29494 47.7144 7.32162 46.928C7.32162 46.1959 7.455 45.6536 7.74844 45.3011C8.01521 44.9486 8.38868 44.7859 8.89554 44.7859C9.21565 44.7859 9.5091 44.8401 9.72251 44.9215V45.7892L10.4961 45.762Z" fill="#C99E71"/>
<path d="M14.8177 50.046C15.5113 50.046 16.0715 49.7748 16.4717 49.2325C16.8718 48.6902 17.0852 47.931 17.0852 46.9819C17.0852 46.0871 16.8985 45.355 16.525 44.8398C16.1516 44.2975 15.618 44.0264 14.9244 44.0264C14.2308 44.0264 13.6706 44.2975 13.2438 44.8398C12.8437 45.3821 12.6302 46.1143 12.6302 47.0362C12.6302 47.9581 12.817 48.7173 13.2171 49.2596C13.6173 49.7477 14.1508 50.0189 14.8177 50.046ZM13.9107 45.3279C14.1508 45.0025 14.4709 44.8127 14.8978 44.8398C15.3246 44.8398 15.6447 45.0025 15.8581 45.355C16.0982 45.7075 16.2049 46.2498 16.2049 46.9819C16.2049 47.7412 16.0715 48.3106 15.8314 48.6631C15.5913 49.0156 15.2712 49.2054 14.8711 49.2054C14.4443 49.2054 14.1508 49.0156 13.9107 48.6631C13.6706 48.2835 13.5639 47.7141 13.5639 46.9819C13.5373 46.2227 13.6706 45.6533 13.9107 45.3279Z" fill="#C99E71"/>
<path d="M19.2193 49.1782V49.9646L21.4068 49.9917V49.2054H20.7132V47.4971H21.5669V48.1207H22.3138L22.3405 46.2227H21.5669V46.7378L20.7132 46.7107L20.7399 44.9211H22.2605V45.6532H23.0341L23.0607 44.1619L19.2727 44.1348V44.9211H19.8596L19.8329 49.1782H19.2193Z" fill="#C99E71"/>
<path d="M24.7947 49.2327V50.019H26.9555L26.9822 49.2327H26.2619L26.2886 47.5515H27.1156V48.1752H27.8892V46.25H27.1422V46.7652H26.2886V44.9756H27.8358L27.8092 45.7077H28.6095L28.6361 44.2163L24.8214 44.1621V44.9485H25.4349L25.4083 49.2327H24.7947Z" fill="#C99E71"/>
<path d="M30.3701 49.2593L30.3434 50.0456L34.2382 50.0728L34.2649 48.5814H33.4646V49.2864H31.8373V47.4968H32.5843V48.1204H33.3579V46.1952H32.611V46.7104H31.864V45.0022L33.3846 45.0293V45.7343L34.1849 45.7614V44.2429L30.3968 44.2158V45.0022H31.0104L30.957 49.2864L30.3701 49.2593Z" fill="#C99E71"/>
<path d="M36.239 49.314L36.2123 50.1003L40.1071 50.1274L40.1337 48.6361L39.3334 48.609V49.3411L37.7062 49.314V47.5244H38.4531V48.148H39.2267V46.2499H38.4798V46.7651L37.7062 46.738L37.7328 45.0569H39.2534V45.789H40.0537V44.2976L36.2656 44.2705V45.0297L36.8792 45.0569L36.8258 49.314H36.239Z" fill="#C99E71"/>
<path d="M51.7914 45.9788V44.623L51.7114 44.5959C51.2845 44.379 50.831 44.2705 50.3242 44.2705C49.7373 44.2705 49.2838 44.4061 48.937 44.7044C48.5902 45.0026 48.4035 45.3822 48.4035 45.8703C48.4035 46.1415 48.4568 46.3855 48.5369 46.5753C48.6436 46.7651 48.7503 46.9278 48.9103 47.0634C49.0704 47.199 49.2304 47.3074 49.4172 47.3888C49.6039 47.4701 49.7907 47.5515 49.9507 47.6057C50.1375 47.6871 50.2975 47.7684 50.4576 47.8226C50.591 47.904 50.6977 47.9582 50.8044 48.0396C50.8844 48.1209 50.9644 48.2022 50.9911 48.3107C51.0445 48.3921 51.0711 48.5276 51.0711 48.6632C51.0711 48.9344 50.9911 49.1242 50.8044 49.2869C50.6176 49.4496 50.3509 49.5038 50.0307 49.5038C49.7106 49.5038 49.4439 49.4767 49.2304 49.3953V48.5819H48.4302V49.9647L48.5102 49.9919C48.9637 50.1817 49.4439 50.2901 49.9774 50.2901H50.0041C50.591 50.2901 51.0711 50.1274 51.4179 49.8292C51.7914 49.5309 51.9781 49.0971 51.9781 48.5819C51.9781 48.2836 51.9248 48.0396 51.8448 47.8497C51.7647 47.6599 51.6313 47.4972 51.4713 47.3617C51.3379 47.2261 51.1512 47.1176 50.9644 47.0363C50.7777 46.9549 50.591 46.8736 50.4042 46.7922C50.2175 46.7109 50.0574 46.6567 49.8974 46.5753C49.764 46.5211 49.6306 46.4397 49.5506 46.3855C49.4705 46.3042 49.3905 46.2228 49.3372 46.1415C49.2838 46.0601 49.2571 45.9517 49.2571 45.8161C49.2571 45.5992 49.3372 45.4365 49.4972 45.2738C49.6573 45.1111 49.924 45.0297 50.2442 45.0569C50.5109 45.0569 50.751 45.1111 50.9377 45.1653V45.9517L51.7914 45.9788Z" fill="#C99E71"/>
<path d="M53.9522 49.4497V50.2361L56.033 50.2632V49.4768H55.4194L55.4461 47.6601L57.9003 47.6872V49.4768H57.2868V50.2632H59.3409L59.3676 49.5039H58.754L58.7807 45.2197H59.3942V44.4334H57.3135V45.1926L57.927 45.2197L57.9003 46.9009L55.4461 46.8738V45.1926H56.0597V44.4062H54.0056L53.9789 45.1926H54.5924L54.5658 49.4497H53.9522Z" fill="#C99E71"/>
<path d="M63.6892 50.4259C63.7158 50.4259 63.7158 50.4259 63.6892 50.4259C64.3827 50.4259 64.9429 50.1547 65.3431 49.6124C65.7432 49.0701 65.9567 48.3109 65.9567 47.3618C65.9567 46.467 65.7699 45.7349 65.3964 45.2197C65.023 44.6774 64.4894 44.4062 63.7959 44.4062C63.1023 44.4062 62.5421 44.6774 62.1152 45.2197C61.7151 45.762 61.5017 46.4941 61.5017 47.4161C61.5017 48.338 61.6884 49.0972 62.0886 49.6395C62.4887 50.1276 63.0222 50.3988 63.6892 50.4259ZM62.7822 45.7078C63.0222 45.3824 63.3424 45.2197 63.7692 45.2197C64.196 45.2197 64.5161 45.3824 64.7295 45.7349C64.9696 46.0874 65.0763 46.6297 65.0763 47.3618C65.0763 48.1211 64.9429 48.6905 64.7029 49.043C64.4628 49.3955 64.1426 49.5853 63.7425 49.5853C63.3157 49.5853 63.0222 49.3955 62.7822 49.043C62.5421 48.6634 62.4354 48.0939 62.4354 47.3618C62.4354 46.6026 62.5421 46.0332 62.7822 45.7078Z" fill="#C99E71"/>
<path d="M68.1175 49.5581V50.3445L70.3049 50.3716V49.5852H69.6113V48.0939H69.9581C70.5984 48.0939 71.1052 47.9312 71.452 47.6329C71.7988 47.3075 71.9856 46.8466 71.9856 46.2229C71.9856 45.6806 71.8255 45.2739 71.5321 44.9756C71.2386 44.6773 70.7584 44.5418 70.1449 44.5418L68.1975 44.5146V45.301H68.8111L68.7844 49.5852L68.1175 49.5581ZM69.9848 47.3075H69.6113L69.638 45.301H70.0649C70.4383 45.301 70.7051 45.3823 70.8651 45.5179C71.0252 45.6535 71.1052 45.8975 71.1052 46.2772C71.1052 46.6568 70.9985 46.9008 70.8385 47.0635C70.5984 47.2262 70.3316 47.3075 69.9848 47.3075Z" fill="#C99E71"/>
<path d="M66.3034 40.8268C66.4368 40.7184 66.5435 40.6099 66.6769 40.5014C68.1175 39.1999 68.0908 38.5762 66.5435 37.3289C63.4491 34.8614 63.4491 34.8614 65.6632 31.5533C66.6769 30.0078 66.4368 29.0045 64.7029 28.4893C61.395 27.486 60.5413 27.8656 62.0886 23.1476C62.1152 23.0662 62.1686 22.9577 62.1953 22.8764C62.5421 21.602 62.1686 20.9783 60.8348 20.8156C60.0078 20.7072 59.1541 20.7885 58.3272 20.7343C56.5932 20.6529 56.193 20.192 56.1397 18.4295C56.1397 18.0227 56.1397 17.616 56.1397 17.2364C56.1397 14.5791 55.7395 14.2537 53.2053 14.8502C49.7373 15.6637 49.7373 15.6637 48.4568 12.2472C47.6299 10.0508 47.2297 9.91522 45.309 11.1896C42.1878 13.2233 42.1878 13.2233 39.8136 10.2948C38.4265 8.55945 37.8129 8.55945 36.4524 10.3491C34.0248 13.5216 34.1582 13.4131 31.0371 11.2439C29.063 9.86099 28.5295 10.1321 27.7558 12.4641C26.8755 15.1485 26.5554 16.3687 23.4609 14.9316C23.2475 14.8231 22.9807 14.8502 22.7406 14.796C20.6866 14.3079 20.1797 14.6062 20.2064 16.7212C20.233 20.8427 19.7529 20.8156 16.0982 20.7885C14.1508 20.7885 13.6973 21.4664 14.2308 23.3102C15.3246 27.1606 15.3246 27.1606 11.6165 28.5164C9.88255 29.1401 9.56243 30.062 10.6028 31.5533C13.0037 35.0241 13.0571 34.9428 9.66914 37.4374C8.20193 38.522 8.20193 39.3626 9.58911 40.5014C9.74917 40.637 9.90923 40.7455 10.0693 40.8811H3V41.9928H74.8933V40.8811H66.3034V40.8268ZM14.7644 38.9016C14.791 25.8591 25.3016 15.257 38.133 15.2298C51.0178 15.2298 61.5817 25.9676 61.5017 39.0914C61.5017 39.6609 61.475 40.2574 61.4216 40.8268H52.6984C55.3127 39.0101 56.5932 36.4341 55.5795 34.8343C55.0193 33.9395 53.8188 33.5599 52.3249 33.7497C52.3783 33.3701 52.4316 32.9905 52.4583 32.6108C52.5117 32.1499 52.3516 31.6889 52.0315 31.3364C51.7114 30.9839 51.2579 30.767 50.7777 30.767H26.502C26.0219 30.767 25.5684 30.9839 25.2482 31.3364C24.9281 31.6889 24.7947 32.1228 24.8214 32.6108C25.0882 35.7291 26.1819 38.5491 27.8359 40.8268H14.8444C14.791 40.2032 14.7644 39.5524 14.7644 38.9016ZM49.5773 40.6099C50.6443 39.0643 51.4713 37.3018 51.9781 35.458C52.9919 35.2139 53.8188 35.3495 54.1123 35.8105C54.3524 36.1901 54.2456 36.8137 53.8455 37.4916C53.392 38.2509 52.6184 39.0101 51.658 39.6337C50.9644 40.0947 50.2708 40.4201 49.5773 40.6099ZM12.817 38.4135C13.1371 24.1779 24.5546 13.1148 38.4531 13.2504C52.3516 13.386 63.9826 25.371 63.3957 40.176C63.3957 40.393 63.369 40.6099 63.369 40.8268H62.302C62.3553 40.2303 62.382 39.6066 62.382 38.983C62.4087 25.4795 51.5246 14.3893 38.2664 14.3622C24.8481 14.335 13.9374 25.3439 13.9107 38.9287C13.9107 39.5795 13.9374 40.2032 13.9907 40.8268H12.8703C12.817 40.0405 12.817 39.227 12.817 38.4135Z" fill="#C99E71"/>
<path d="M3 53.9238H14.4176C13.6173 57.0692 13.8574 57.0963 17.5654 57.2047C19.6462 57.259 20.073 57.6928 20.1797 59.7536C20.3664 63.8751 20.3664 63.8751 24.2345 62.7363C25.9952 62.2211 26.6354 62.5194 27.3023 64.2276C27.5691 64.8784 27.7025 65.5563 27.9426 66.2071C28.4494 67.59 29.1697 67.8882 30.4502 67.1561C31.2238 66.7223 31.8907 66.1257 32.6376 65.6648C33.5713 65.0682 34.4516 64.9598 35.1986 66.0444C35.7321 66.8036 36.319 67.5628 36.9326 68.2678C37.7595 69.244 38.5332 69.244 39.3868 68.2678C39.947 67.6442 40.4005 66.9392 40.934 66.2884C41.9478 65.0411 42.6413 64.9326 43.9485 65.8274C44.6421 66.2884 45.309 66.7765 46.0293 67.2103C47.123 67.9153 47.87 67.5628 48.2968 66.3426C48.5635 65.5834 48.9103 64.8513 49.1237 64.0921C49.4705 62.7363 50.2975 62.3024 51.5513 62.6007C52.3249 62.7905 53.0452 63.1159 53.7921 63.3328C55.3394 63.7938 56.1664 63.2244 56.2464 61.5703C56.2731 60.784 56.2731 59.9705 56.2731 59.157C56.2464 57.9368 56.8866 57.3132 58.0337 57.2047C58.5139 57.1505 59.0208 57.2047 59.8477 57.2047C62.302 57.3945 63.0222 56.6082 61.9285 53.8966H75V52.7849H3V53.9238ZM56.2464 53.9238C51.9248 59.3197 45.3357 62.7634 38.053 62.6549C30.797 62.6549 24.2879 59.2384 20.0196 53.9238H56.2464V53.9238ZM38.0263 64.6073C29.5165 64.6073 22.1004 60.3501 17.5387 53.8966H18.9259C23.3542 59.7536 30.3168 63.5226 38.1597 63.5226C45.9226 63.604 52.9118 59.7807 57.3401 53.8966H58.6206C53.9522 60.4315 46.3494 64.7428 38.0263 64.6073Z" fill="#C99E71"/>
</svg>
