<svg xmlns="http://www.w3.org/2000/svg" xmlns:xlink="http://www.w3.org/1999/xlink">
    <g id="facebook">
    <path d="M279.14 288l14.22-92.66h-88.91v-60.13c0-25.35 12.42-50.06 52.24-50.06h40.42V6.26S260.43 0 225.36 0c-73.22 0-121.08 44.38-121.08 124.72v70.62H22.89V288h81.39v224h100.17V288z"/>
    </g>
    <g id="instagram">
    <path d="M224.1 141c-63.6 0-114.9 51.3-114.9 114.9s51.3 114.9 114.9 114.9S339 319.5 339 255.9 287.7 141 224.1 141zm0 189.6c-41.1 0-74.7-33.5-74.7-74.7s33.5-74.7 74.7-74.7 74.7 33.5 74.7 74.7-33.6 74.7-74.7 74.7zm146.4-194.3c0 14.9-12 26.8-26.8 26.8-14.9 0-26.8-12-26.8-26.8s12-26.8 26.8-26.8 26.8 12 26.8 26.8zm76.1 27.2c-1.7-35.9-9.9-67.7-36.2-93.9-26.2-26.2-58-34.4-93.9-36.2-37-2.1-147.9-2.1-184.9 0-35.8 1.7-67.6 9.9-93.9 36.1s-34.4 58-36.2 93.9c-2.1 37-2.1 147.9 0 184.9 1.7 35.9 9.9 67.7 36.2 93.9s58 34.4 93.9 36.2c37 2.1 147.9 2.1 184.9 0 35.9-1.7 67.7-9.9 93.9-36.2 26.2-26.2 34.4-58 36.2-93.9 2.1-37 2.1-147.8 0-184.8zM398.8 388c-7.8 19.6-22.9 34.7-42.6 42.6-29.5 11.7-99.5 9-132.1 9s-102.7 2.6-132.1-9c-19.6-7.8-34.7-22.9-42.6-42.6-11.7-29.5-9-99.5-9-132.1s-2.6-102.7 9-132.1c7.8-19.6 22.9-34.7 42.6-42.6 29.5-11.7 99.5-9 132.1-9s102.7-2.6 132.1 9c19.6 7.8 34.7 22.9 42.6 42.6 11.7 29.5 9 99.5 9 132.1s2.7 102.7-9 132.1z"/>
    </g>
    <g id="telegram">
   <path d="M248,8C111.033,8,0,119.033,0,256S111.033,504,248,504,496,392.967,496,256,384.967,8,248,8ZM362.952,176.66c-3.732,39.215-19.881,134.378-28.1,178.3-3.476,18.584-10.322,24.816-16.948,25.425-14.4,1.326-25.338-9.517-39.287-18.661-21.827-14.308-34.158-23.215-55.346-37.177-24.485-16.135-8.612-25,5.342-39.5,3.652-3.793,67.107-61.51,68.335-66.746.153-.655.3-3.1-1.154-4.384s-3.59-.849-5.135-.5q-3.283.746-104.608,69.142-14.845,10.194-26.894,9.934c-8.855-.191-25.888-5.006-38.551-9.123-15.531-5.048-27.875-7.717-26.8-16.291q.84-6.7,18.45-13.7,108.446-47.248,144.628-62.3c68.872-28.647,83.183-33.623,92.511-33.789,2.052-.034,6.639.474,9.61,2.885a10.452,10.452,0,0,1,3.53,6.716A43.765,43.765,0,0,1,362.952,176.66Z"/>
   </g>
   <g id="logo">
   <path d="M37.1871 21.4144C35.0796 19.5706 34.9463 17.8623 36.6536 15.7473C36.8937 15.449 37.1604 15.1507 37.3738 14.8254C38.9478 12.5477 38.4142 10.27 36.0133 9.02265C35.8266 8.91419 35.6132 8.80573 35.3731 8.69727C35.3998 8.83284 35.3998 8.91419 35.4264 8.96842C36.2267 10.5411 36.0667 11.9782 34.9463 13.3069C34.7595 13.5238 34.5995 13.7679 34.4661 14.0119C32.4387 17.2929 34.4394 20.8179 37.1871 21.4144Z" fill="#C99E71"/>
<path d="M33.0256 18.6216C31.7984 17.2929 31.7718 16.127 32.8655 14.717C33.0256 14.5272 33.1856 14.3102 33.319 14.0933C34.3327 12.5749 34.0659 10.975 32.6521 10.0531C32.5454 9.97177 32.412 9.89043 32.2786 9.80908C32.2786 9.89043 32.2786 9.94466 32.3053 9.99889C32.7588 11.0835 32.5987 12.0868 31.9051 12.9816C31.7984 13.1172 31.6917 13.2799 31.585 13.4425C30.3046 15.666 31.3983 18.1606 33.0256 18.6216Z" fill="#C99E71"/>
<path d="M38.2008 19.8146C37.854 19.2181 37.694 18.5944 38.0408 17.9436C38.2008 17.6454 38.4142 17.3742 38.601 17.1302C39.0278 16.5608 39.1078 15.9642 38.841 15.3677C38.4142 15.9642 38.0141 16.5336 37.5872 17.1302C36.7869 18.2148 36.947 19.1096 38.2008 19.8146Z" fill="#C99E71"/>
<path d="M7.49613 36.762V35.3249L7.4161 35.2978C6.88257 35.0809 6.37571 34.9453 5.86886 34.9453C5.12192 34.9453 4.50836 35.2165 4.08153 35.7588C3.62803 36.3011 3.41462 37.0332 3.38794 37.9551C3.38794 38.877 3.60135 39.6363 4.02818 40.1515C4.455 40.6938 5.06856 40.9649 5.81551 40.9921H5.84218C6.37571 40.9921 6.88257 40.8565 7.38942 40.5853L7.46945 40.5582V39.6905L7.28272 39.799C6.77586 40.0701 6.29568 40.1786 5.86886 40.1786C5.362 40.1786 4.98853 39.9888 4.72177 39.6363C4.455 39.2838 4.29494 38.7144 4.32162 37.928C4.32162 37.1959 4.455 36.6536 4.74844 36.3011C5.01521 35.9486 5.38868 35.7859 5.89554 35.7859C6.21565 35.7859 6.5091 35.8401 6.72251 35.9215V36.7892L7.49613 36.762Z" fill="#C99E71"/>
<path d="M11.8177 41.046C12.5113 41.046 13.0715 40.7748 13.4717 40.2325C13.8718 39.6902 14.0852 38.931 14.0852 37.9819C14.0852 37.0871 13.8985 36.355 13.525 35.8398C13.1516 35.2975 12.618 35.0264 11.9244 35.0264C11.2308 35.0264 10.6706 35.2975 10.2438 35.8398C9.84366 36.3821 9.63025 37.1143 9.63025 38.0362C9.63025 38.9581 9.81698 39.7173 10.2171 40.2596C10.6173 40.7477 11.1508 41.0189 11.8177 41.046ZM10.9107 36.3279C11.1508 36.0025 11.4709 35.8127 11.8978 35.8398C12.3246 35.8398 12.6447 36.0025 12.8581 36.355C13.0982 36.7075 13.2049 37.2498 13.2049 37.9819C13.2049 38.7412 13.0715 39.3106 12.8314 39.6631C12.5913 40.0156 12.2712 40.2054 11.8711 40.2054C11.4443 40.2054 11.1508 40.0156 10.9107 39.6631C10.6706 39.2835 10.5639 38.7141 10.5639 37.9819C10.5373 37.2227 10.6706 36.6533 10.9107 36.3279Z" fill="#C99E71"/>
<path d="M16.2193 40.1782V40.9646L18.4068 40.9917V40.2054H17.7132V38.4971H18.5668V39.1207H19.3138L19.3405 37.2227H18.5668V37.7378L17.7132 37.7107L17.7399 35.9211H19.2604V36.6532H20.034L20.0607 35.1619L16.2727 35.1348V35.9211H16.8595L16.8329 40.1782H16.2193Z" fill="#C99E71"/>
<path d="M21.7947 40.2327V41.019H23.9555L23.9822 40.2327H23.262L23.2886 38.5515H24.1156V39.1752H24.8892V37.25H24.1423V37.7652H23.2886V35.9756H24.8359L24.8092 36.7077H25.6095L25.6362 35.2163L21.8214 35.1621V35.9485H22.435L22.4083 40.2327H21.7947Z" fill="#C99E71"/>
<path d="M27.3701 40.2593L27.3434 41.0456L31.2382 41.0728L31.2649 39.5814H30.4646V40.2864H28.8373V38.4968H29.5843V39.1204H30.3579V37.1952H29.611V37.7104H28.864V36.0022L30.3846 36.0293V36.7343L31.1849 36.7614V35.2429L27.3968 35.2158V36.0022H28.0104L27.957 40.2864L27.3701 40.2593Z" fill="#C99E71"/>
<path d="M33.239 40.314L33.2123 41.1003L37.1071 41.1274L37.1337 39.6361L36.3334 39.609V40.3411L34.7062 40.314V38.5244H35.4531V39.148H36.2267V37.2499H35.4798V37.7651L34.7062 37.738L34.7328 36.0569H36.2534V36.789H37.0537V35.2976L33.2656 35.2705V36.0297L33.8792 36.0569L33.8258 40.314H33.239Z" fill="#C99E71"/>
<path d="M48.7914 36.9788V35.623L48.7114 35.5959C48.2845 35.379 47.831 35.2705 47.3242 35.2705C46.7373 35.2705 46.2838 35.4061 45.937 35.7044C45.5902 36.0026 45.4035 36.3822 45.4035 36.8703C45.4035 37.1415 45.4568 37.3855 45.5369 37.5753C45.6436 37.7651 45.7503 37.9278 45.9103 38.0634C46.0704 38.199 46.2304 38.3074 46.4172 38.3888C46.6039 38.4701 46.7907 38.5515 46.9507 38.6057C47.1375 38.6871 47.2975 38.7684 47.4576 38.8226C47.591 38.904 47.6977 38.9582 47.8044 39.0396C47.8844 39.1209 47.9644 39.2022 47.9911 39.3107C48.0445 39.3921 48.0711 39.5276 48.0711 39.6632C48.0711 39.9344 47.9911 40.1242 47.8044 40.2869C47.6176 40.4496 47.3509 40.5038 47.0307 40.5038C46.7106 40.5038 46.4439 40.4767 46.2304 40.3953V39.5819H45.4302V40.9647L45.5102 40.9919C45.9637 41.1817 46.4439 41.2901 46.9774 41.2901H47.0041C47.591 41.2901 48.0711 41.1274 48.4179 40.8292C48.7914 40.5309 48.9781 40.0971 48.9781 39.5819C48.9781 39.2836 48.9248 39.0396 48.8448 38.8497C48.7647 38.6599 48.6313 38.4972 48.4713 38.3617C48.3379 38.2261 48.1512 38.1176 47.9644 38.0363C47.7777 37.9549 47.591 37.8736 47.4042 37.7922C47.2175 37.7109 47.0574 37.6567 46.8974 37.5753C46.764 37.5211 46.6306 37.4397 46.5506 37.3855C46.4705 37.3042 46.3905 37.2228 46.3372 37.1415C46.2838 37.0601 46.2571 36.9517 46.2571 36.8161C46.2571 36.5992 46.3372 36.4365 46.4972 36.2738C46.6573 36.1111 46.924 36.0297 47.2442 36.0569C47.5109 36.0569 47.751 36.1111 47.9377 36.1653V36.9517L48.7914 36.9788Z" fill="#C99E71"/>
<path d="M50.9522 40.4497V41.2361L53.033 41.2632V40.4768H52.4194L52.4461 38.6601L54.9003 38.6872V40.4768H54.2868V41.2632H56.3409L56.3676 40.5039H55.754L55.7807 36.2197H56.3942V35.4334H54.3135V36.1926L54.927 36.2197L54.9003 37.9009L52.4461 37.8738V36.1926H53.0597V35.4062H51.0056L50.9789 36.1926H51.5924L51.5658 40.4497H50.9522Z" fill="#C99E71"/>
<path d="M60.6892 41.4259C60.7158 41.4259 60.7158 41.4259 60.6892 41.4259C61.3827 41.4259 61.9429 41.1547 62.3431 40.6124C62.7432 40.0701 62.9567 39.3109 62.9567 38.3618C62.9567 37.467 62.7699 36.7349 62.3964 36.2197C62.023 35.6774 61.4894 35.4062 60.7959 35.4062C60.1023 35.4062 59.5421 35.6774 59.1152 36.2197C58.7151 36.762 58.5017 37.4941 58.5017 38.4161C58.5017 39.338 58.6884 40.0972 59.0886 40.6395C59.4887 41.1276 60.0222 41.3988 60.6892 41.4259ZM59.7822 36.7078C60.0222 36.3824 60.3424 36.2197 60.7692 36.2197C61.196 36.2197 61.5161 36.3824 61.7295 36.7349C61.9696 37.0874 62.0763 37.6297 62.0763 38.3618C62.0763 39.1211 61.9429 39.6905 61.7029 40.043C61.4628 40.3955 61.1426 40.5853 60.7425 40.5853C60.3157 40.5853 60.0222 40.3955 59.7822 40.043C59.5421 39.6634 59.4354 39.0939 59.4354 38.3618C59.4354 37.6026 59.5421 37.0332 59.7822 36.7078Z" fill="#C99E71"/>
<path d="M65.1175 40.5581V41.3445L67.3049 41.3716V40.5852H66.6113V39.0939H66.9581C67.5984 39.0939 68.1052 38.9312 68.452 38.6329C68.7988 38.3075 68.9856 37.8466 68.9856 37.2229C68.9856 36.6806 68.8255 36.2739 68.5321 35.9756C68.2386 35.6773 67.7584 35.5418 67.1449 35.5418L65.1975 35.5146V36.301H65.8111L65.7844 40.5852L65.1175 40.5581ZM66.9848 38.3075H66.6113L66.638 36.301H67.0649C67.4383 36.301 67.7051 36.3823 67.8651 36.5179C68.0252 36.6535 68.1052 36.8975 68.1052 37.2772C68.1052 37.6568 67.9985 37.9008 67.8385 38.0635C67.5984 38.2262 67.3316 38.3075 66.9848 38.3075Z" fill="#C99E71"/>
<path d="M63.3034 31.8268C63.4368 31.7184 63.5435 31.6099 63.6769 31.5014C65.1175 30.1999 65.0908 29.5762 63.5435 28.3289C60.4491 25.8614 60.4491 25.8614 62.6632 22.5533C63.6769 21.0078 63.4368 20.0045 61.7029 19.4893C58.395 18.486 57.5413 18.8656 59.0886 14.1476C59.1152 14.0662 59.1686 13.9577 59.1953 13.8764C59.5421 12.602 59.1686 11.9783 57.8348 11.8156C57.0078 11.7072 56.1541 11.7885 55.3272 11.7343C53.5932 11.6529 53.193 11.192 53.1397 9.42947C53.1397 9.02274 53.1397 8.61601 53.1397 8.23639C53.1397 5.57908 52.7395 5.25369 50.2053 5.85023C46.7373 6.6637 46.7373 6.6637 45.4568 3.24715C44.6299 1.0508 44.2297 0.915224 42.309 2.18965C39.1879 4.22331 39.1878 4.22331 36.8136 1.29484C35.4265 -0.440548 34.8129 -0.440548 33.4524 1.34907C31.0248 4.52158 31.1582 4.41312 28.0371 2.24388C26.063 0.860993 25.5295 1.13215 24.7558 3.46408C23.8755 6.1485 23.5554 7.3687 20.4609 5.93158C20.2475 5.82312 19.9807 5.85023 19.7406 5.796C17.6866 5.30792 17.1797 5.60619 17.2064 7.7212C17.233 11.8427 16.7529 11.8156 13.0982 11.7885C11.1508 11.7885 10.6973 12.4664 11.2308 14.3102C12.3246 18.1606 12.3246 18.1606 8.61652 19.5164C6.88255 20.1401 6.56243 21.062 7.60282 22.5533C10.0037 26.0241 10.0571 25.9428 6.66914 28.4374C5.20193 29.522 5.20193 30.3626 6.58911 31.5014C6.74917 31.637 6.90923 31.7455 7.06928 31.8811H0V32.9928H71.8933V31.8811H63.3034V31.8268ZM11.7644 29.9016C11.791 16.8591 22.3016 6.25696 35.133 6.22985C48.0178 6.22985 58.5817 16.9676 58.5017 30.0914C58.5017 30.6609 58.475 31.2574 58.4216 31.8268H49.6984C52.3127 30.0101 53.5932 27.4341 52.5795 25.8343C52.0193 24.9395 50.8188 24.5599 49.3249 24.7497C49.3783 24.3701 49.4316 23.9905 49.4583 23.6108C49.5117 23.1499 49.3516 22.6889 49.0315 22.3364C48.7114 21.9839 48.2579 21.767 47.7777 21.767H23.502C23.0219 21.767 22.5684 21.9839 22.2482 22.3364C21.9281 22.6889 21.7947 23.1228 21.8214 23.6108C22.0882 26.7291 23.1819 29.5491 24.8359 31.8268H11.8444C11.791 31.2032 11.7644 30.5524 11.7644 29.9016ZM46.5773 31.6099C47.6443 30.0643 48.4713 28.3018 48.9781 26.458C49.9919 26.2139 50.8188 26.3495 51.1123 26.8105C51.3524 27.1901 51.2457 27.8137 50.8455 28.4916C50.392 29.2509 49.6184 30.0101 48.658 30.6337C47.9644 31.0947 47.2708 31.4201 46.5773 31.6099ZM9.81697 29.4135C10.1371 15.1779 21.5546 4.11485 35.4531 4.25042C49.3516 4.386 60.9826 16.371 60.3957 31.176C60.3957 31.393 60.369 31.6099 60.369 31.8268H59.302C59.3553 31.2303 59.382 30.6066 59.382 29.983C59.4087 16.4795 48.5246 5.38927 35.2664 5.36215C21.8481 5.33504 10.9374 16.3439 10.9107 29.9287C10.9107 30.5795 10.9374 31.2032 10.9907 31.8268H9.87032C9.81697 31.0405 9.81697 30.227 9.81697 29.4135Z" fill="#C99E71"/>
<path d="M0 44.9238H11.4176C10.6173 48.0692 10.8574 48.0963 14.5654 48.2047C16.6462 48.259 17.073 48.6928 17.1797 50.7536C17.3664 54.8751 17.3664 54.8751 21.2345 53.7363C22.9952 53.2211 23.6354 53.5194 24.3023 55.2276C24.5691 55.8784 24.7025 56.5563 24.9426 57.2071C25.4494 58.59 26.1697 58.8882 27.4502 58.1561C28.2238 57.7223 28.8907 57.1257 29.6376 56.6648C30.5713 56.0682 31.4516 55.9598 32.1986 57.0444C32.7321 57.8036 33.319 58.5628 33.9326 59.2678C34.7595 60.244 35.5332 60.244 36.3868 59.2678C36.947 58.6442 37.4005 57.9392 37.9341 57.2884C38.9478 56.0411 39.6413 55.9326 40.9485 56.8274C41.6421 57.2884 42.309 57.7765 43.0293 58.2103C44.123 58.9153 44.87 58.5628 45.2968 57.3426C45.5635 56.5834 45.9103 55.8513 46.1237 55.0921C46.4705 53.7363 47.2975 53.3024 48.5513 53.6007C49.3249 53.7905 50.0452 54.1159 50.7921 54.3328C52.3394 54.7938 53.1664 54.2244 53.2464 52.5703C53.2731 51.784 53.2731 50.9705 53.2731 50.157C53.2464 48.9368 53.8866 48.3132 55.0337 48.2047C55.5139 48.1505 56.0208 48.2047 56.8477 48.2047C59.302 48.3945 60.0222 47.6082 58.9285 44.8966H72V43.7849H0V44.9238ZM53.2464 44.9238C48.9248 50.3197 42.3357 53.7634 35.053 53.6549C27.797 53.6549 21.2879 50.2384 17.0196 44.9238H53.2464ZM35.0263 55.6073C26.5165 55.6073 19.1004 51.3501 14.5387 44.8966H15.9259C20.3542 50.7536 27.3168 54.5226 35.1597 54.5226C42.9226 54.604 49.9118 50.7807 54.3401 44.8966H55.6206C50.9522 51.4315 43.3494 55.7428 35.0263 55.6073Z" fill="#C99E71"/></g>
<g id="cart">
<path fill-rule="evenodd" clip-rule="evenodd" d="M6.7 1.9C6.88885 1.64819 7.18524 1.5 7.5 1.5H22.5C22.8148 1.5 23.1111 1.64819 23.3 1.9L27.05 6.9C27.1798 7.0731 27.25 7.28363 27.25 7.5V25C27.25 25.9283 26.8813 26.8185 26.2249 27.4749C25.5685 28.1313 24.6783 28.5 23.75 28.5H6.25C5.32174 28.5 4.4315 28.1313 3.77513 27.4749C3.11875 26.8185 2.75 25.9283 2.75 25V7.5C2.75 7.28363 2.82018 7.0731 2.95 6.9L6.7 1.9ZM8 3.5L4.75 7.83333V25C4.75 25.3978 4.90804 25.7794 5.18934 26.0607C5.47064 26.342 5.85218 26.5 6.25 26.5H23.75C24.1478 26.5 24.5294 26.342 24.8107 26.0607C25.092 25.7794 25.25 25.3978 25.25 25V7.83333L22 3.5H8Z"/>
<path fill-rule="evenodd" clip-rule="evenodd" d="M2.75 7.5C2.75 6.94772 3.19772 6.5 3.75 6.5H26.25C26.8023 6.5 27.25 6.94772 27.25 7.5C27.25 8.05228 26.8023 8.5 26.25 8.5H3.75C3.19772 8.5 2.75 8.05228 2.75 7.5Z"/>
<path fill-rule="evenodd" clip-rule="evenodd" d="M10 11.5C10.5523 11.5 11 11.9477 11 12.5C11 13.5609 11.4214 14.5783 12.1716 15.3284C12.9217 16.0786 13.9391 16.5 15 16.5C16.0609 16.5 17.0783 16.0786 17.8284 15.3284C18.5786 14.5783 19 13.5609 19 12.5C19 11.9477 19.4477 11.5 20 11.5C20.5523 11.5 21 11.9477 21 12.5C21 14.0913 20.3679 15.6174 19.2427 16.7426C18.1174 17.8679 16.5913 18.5 15 18.5C13.4087 18.5 11.8826 17.8679 10.7574 16.7426C9.63215 15.6174 9.00001 14.0913 9.00001 12.5C9.00001 11.9477 9.44772 11.5 10 11.5Z"/></g>
<g id="star-filled"> <path d="M9 0.666687L11.575 5.88335L17.3333 6.72502L13.1667 10.7834L14.15 16.5167L9 13.8084L3.85 16.5167L4.83333 10.7834L0.666666 6.72502L6.425 5.88335L9 0.666687Z"/>
</g>
<g id="star-outlined"><path fill-rule="evenodd" clip-rule="evenodd" d="M10 0.666687C10.3806 0.666687 10.7282 0.882759 10.8967 1.22406L13.2393 5.96982L18.478 6.73553C18.8545 6.79057 19.1672 7.05458 19.2846 7.41659C19.402 7.77859 19.3037 8.17585 19.0311 8.44138L15.2412 12.1327L16.1356 17.3476C16.2 17.7228 16.0457 18.102 15.7377 18.3257C15.4298 18.5495 15.0215 18.5789 14.6846 18.4018L10 15.9382L5.31546 18.4018C4.97854 18.5789 4.57025 18.5495 4.26227 18.3257C3.95429 18.102 3.80005 17.7228 3.8644 17.3476L4.75882 12.1327L0.968938 8.44138C0.696319 8.17585 0.598047 7.77859 0.715424 7.41659C0.832802 7.05458 1.14548 6.79057 1.52204 6.73553L6.76074 5.96982L9.1033 1.22406C9.27177 0.882759 9.61939 0.666687 10 0.666687ZM10 3.92594L8.32171 7.32598C8.17617 7.62082 7.89499 7.82528 7.56963 7.87284L3.81508 8.42162L6.53107 11.067C6.76694 11.2967 6.87461 11.6279 6.81895 11.9524L6.17818 15.6884L9.53455 13.9233C9.82594 13.77 10.1741 13.77 10.4655 13.9233L13.8218 15.6884L13.1811 11.9524C13.1254 11.6279 13.2331 11.2967 13.4689 11.067L16.1849 8.42162L12.4304 7.87284C12.105 7.82528 11.8238 7.62082 11.6783 7.32598L10 3.92594Z"/>
</g>
<g id="arrow">
<path fill-rule="evenodd" clip-rule="evenodd" d="M0.25 8C0.25 7.58579 0.585786 7.25 1 7.25L19 7.25C19.4142 7.25 19.75 7.58578 19.75 8C19.75 8.41421 19.4142 8.75 19 8.75L1 8.75C0.585787 8.75 0.25 8.41421 0.25 8Z"/>
<path fill-rule="evenodd" clip-rule="evenodd" d="M11.4697 0.46967C11.7626 0.176777 12.2374 0.176777 12.5303 0.46967L19.5303 7.46967C19.8232 7.76256 19.8232 8.23744 19.5303 8.53033L12.5303 15.5303C12.2374 15.8232 11.7626 15.8232 11.4697 15.5303C11.1768 15.2374 11.1768 14.7626 11.4697 14.4697L17.9393 8L11.4697 1.53033C11.1768 1.23744 11.1768 0.762563 11.4697 0.46967Z"/>
</g>
</svg>