<svg width="20" height="19" viewBox="0 0 20 19" fill="none" xmlns="http://www.w3.org/2000/svg">
<path fill-rule="evenodd" clip-rule="evenodd" d="M10 0.666687C10.3806 0.666687 10.7282 0.882759 10.8967 1.22406L13.2393 5.96982L18.478 6.73553C18.8545 6.79057 19.1672 7.05458 19.2846 7.41659C19.402 7.77859 19.3037 8.17585 19.0311 8.44138L15.2412 12.1327L16.1356 17.3476C16.2 17.7228 16.0457 18.102 15.7377 18.3257C15.4298 18.5495 15.0215 18.5789 14.6846 18.4018L10 15.9382L5.31546 18.4018C4.97854 18.5789 4.57025 18.5495 4.26227 18.3257C3.95429 18.102 3.80005 17.7228 3.8644 17.3476L4.75882 12.1327L0.968938 8.44138C0.696319 8.17585 0.598047 7.77859 0.715424 7.41659C0.832802 7.05458 1.14548 6.79057 1.52204 6.73553L6.76074 5.96982L9.1033 1.22406C9.27177 0.882759 9.61939 0.666687 10 0.666687ZM10 3.92594L8.32171 7.32598C8.17617 7.62082 7.89499 7.82528 7.56963 7.87284L3.81508 8.42162L6.53107 11.067C6.76694 11.2967 6.87461 11.6279 6.81895 11.9524L6.17818 15.6884L9.53455 13.9233C9.82594 13.77 10.1741 13.77 10.4655 13.9233L13.8218 15.6884L13.1811 11.9524C13.1254 11.6279 13.2331 11.2967 13.4689 11.067L16.1849 8.42162L12.4304 7.87284C12.105 7.82528 11.8238 7.62082 11.6783 7.32598L10 3.92594Z"/>
</svg>

